<svg width="38" height="8" viewBox="0 0 38 8" fill="none" xmlns="http://www.w3.org/2000/svg">
<path d="M7.532 7.12C7.404 7.12 7.288 7.092 7.184 7.036C7.08 6.988 7.028 6.876 7.028 6.7C7.028 6.548 7.108 6.328 7.268 6.04C7.428 5.752 7.644 5.424 7.916 5.056C8.188 4.68 8.488 4.288 8.816 3.88C9.152 3.472 9.496 3.076 9.848 2.692C10.2 2.3 10.536 1.94 10.856 1.612C11.176 1.276 11.46 0.996002 11.708 0.772002C11.956 0.548002 12.14 0.408002 12.26 0.352003C12.3 0.336002 12.328 0.336002 12.344 0.352003C12.36 0.360003 12.34 0.376003 12.284 0.400003C12.044 0.512003 11.752 0.704003 11.408 0.976003C11.072 1.24 10.704 1.556 10.304 1.924C9.912 2.292 9.508 2.684 9.092 3.1C8.676 3.516 8.272 3.932 7.88 4.348C7.496 4.756 7.136 5.14 6.8 5.5C6.472 5.852 6.192 6.156 5.96 6.412C5.728 6.668 5.568 6.844 5.48 6.94C5.376 7.044 5.288 7.084 5.216 7.06C5.144 7.036 5.108 6.948 5.108 6.796C5.108 6.588 5.172 6.328 5.3 6.016C5.428 5.704 5.6 5.364 5.816 4.996C6.032 4.628 6.272 4.252 6.536 3.868C6.8 3.484 7.064 3.112 7.328 2.752C7.6 2.384 7.856 2.052 8.096 1.756C8.344 1.46 8.552 1.216 8.72 1.024C8.896 0.824003 9.012 0.700003 9.068 0.652002C9.1 0.628003 9.152 0.612003 9.224 0.604002C9.296 0.596002 9.3 0.612002 9.236 0.652002C9.076 0.732002 8.856 0.908002 8.576 1.18C8.296 1.452 7.976 1.784 7.616 2.176C7.256 2.56 6.868 2.976 6.452 3.424C6.044 3.872 5.62 4.312 5.18 4.744C4.74 5.176 4.304 5.572 3.872 5.932C3.448 6.284 3.04 6.568 2.648 6.784C2.256 7 1.9 7.108 1.58 7.108C1.26 7.108 1.036 7.052 0.908003 6.94C0.780003 6.82 0.716003 6.7 0.716003 6.58C0.716003 6.42 0.760003 6.304 0.848004 6.232C0.936004 6.152 1.02 6.112 1.1 6.112C1.284 6.112 1.376 6.176 1.376 6.304C1.376 6.4 1.344 6.468 1.28 6.508C1.216 6.54 1.164 6.556 1.124 6.556C1.052 6.556 0.996003 6.548 0.956003 6.532C0.916003 6.508 0.896003 6.496 0.896003 6.496C0.896003 6.512 0.904003 6.56 0.920003 6.64C0.928003 6.72 0.980003 6.8 1.076 6.88C1.164 6.952 1.324 6.988 1.556 6.988C1.884 6.988 2.248 6.872 2.648 6.64C3.056 6.4 3.484 6.088 3.932 5.704C4.388 5.32 4.844 4.896 5.3 4.432C5.764 3.96 6.212 3.488 6.644 3.016C7.076 2.544 7.48 2.108 7.856 1.708C8.232 1.308 8.56 0.980003 8.84 0.724003C9.12 0.460003 9.332 0.312002 9.476 0.280003C9.588 0.256003 9.644 0.256003 9.644 0.280003C9.644 0.304003 9.624 0.336002 9.584 0.376002C9.48 0.456002 9.336 0.616002 9.152 0.856003C8.968 1.088 8.76 1.376 8.528 1.72C8.296 2.056 8.048 2.424 7.784 2.824C7.528 3.224 7.272 3.628 7.016 4.036C6.76 4.444 6.52 4.836 6.296 5.212C6.08 5.58 5.892 5.908 5.732 6.196C5.572 6.484 5.46 6.704 5.396 6.856C5.388 6.872 5.356 6.896 5.3 6.928C5.244 6.96 5.22 6.972 5.228 6.964C5.236 6.956 5.324 6.856 5.492 6.664C5.66 6.472 5.884 6.22 6.164 5.908C6.452 5.588 6.78 5.236 7.148 4.852C7.516 4.46 7.904 4.056 8.312 3.64C8.72 3.224 9.124 2.82 9.524 2.428C9.932 2.028 10.32 1.672 10.688 1.36C11.056 1.04 11.38 0.780002 11.66 0.580003C11.948 0.380003 12.172 0.272003 12.332 0.256003C12.42 0.240003 12.46 0.252003 12.452 0.292003C12.452 0.324003 12.436 0.348003 12.404 0.364003C12.228 0.468003 12.008 0.660003 11.744 0.940003C11.48 1.212 11.192 1.536 10.88 1.912C10.568 2.288 10.248 2.688 9.92 3.112C9.592 3.536 9.276 3.956 8.972 4.372C8.676 4.788 8.408 5.172 8.168 5.524C7.936 5.868 7.748 6.156 7.604 6.388C7.468 6.612 7.4 6.748 7.4 6.796C7.4 6.852 7.428 6.9 7.484 6.94C7.548 6.98 7.62 7 7.7 7C7.884 7 8.064 6.956 8.24 6.868C8.424 6.78 8.58 6.692 8.708 6.604C8.836 6.508 8.904 6.456 8.912 6.448C8.952 6.392 8.992 6.396 9.032 6.46C9.072 6.524 9.048 6.576 8.96 6.616C8.96 6.616 8.888 6.66 8.744 6.748C8.608 6.828 8.432 6.912 8.216 7C8 7.08 7.772 7.12 7.532 7.12Z" fill="black"/>
<path d="M12.4901 3.94C12.8901 3.94 13.0901 4.132 13.0901 4.516C13.0901 4.812 13.0221 5.116 12.8861 5.428C12.7501 5.732 12.5661 6.012 12.3341 6.268C12.1021 6.516 11.8501 6.72 11.5781 6.88C11.3061 7.032 11.0301 7.108 10.7501 7.108C10.5341 7.108 10.3541 7.056 10.2101 6.952C10.0581 6.84 9.98207 6.66 9.98207 6.412C9.98207 6.18 10.0501 5.924 10.1861 5.644C10.3221 5.356 10.5061 5.084 10.7381 4.828C10.9781 4.572 11.2461 4.36 11.5421 4.192C11.8461 4.024 12.1621 3.94 12.4901 3.94ZM12.6221 4.108C12.4861 4.108 12.3261 4.168 12.1421 4.288C11.9581 4.408 11.7701 4.564 11.5781 4.756C11.3861 4.948 11.2061 5.156 11.0381 5.38C10.8781 5.596 10.7461 5.808 10.6421 6.016C10.5461 6.224 10.4981 6.4 10.4981 6.544C10.4981 6.704 10.5421 6.816 10.6301 6.88C10.7181 6.936 10.8181 6.964 10.9301 6.964C11.1141 6.964 11.3221 6.888 11.5541 6.736C11.7861 6.576 12.0101 6.376 12.2261 6.136C12.4421 5.896 12.6181 5.644 12.7541 5.38C12.8981 5.108 12.9701 4.86 12.9701 4.636C12.9701 4.428 12.9341 4.288 12.8621 4.216C12.7901 4.144 12.7101 4.108 12.6221 4.108ZM12.8381 5.344C12.8781 5.344 12.8941 5.36 12.8861 5.392C12.8861 5.416 12.8661 5.428 12.8261 5.428C12.7941 5.428 12.7461 5.472 12.6821 5.56C12.6261 5.64 12.5741 5.724 12.5261 5.812C12.4781 5.9 12.4541 5.948 12.4541 5.956C12.4541 6.14 12.5221 6.232 12.6581 6.232C12.7861 6.232 12.9301 6.172 13.0901 6.052C13.2581 5.932 13.4181 5.796 13.5701 5.644C13.7301 5.484 13.8581 5.344 13.9541 5.224L14.0501 5.308C13.9461 5.428 13.8141 5.572 13.6541 5.74C13.4941 5.9 13.3261 6.044 13.1501 6.172C12.9741 6.292 12.8101 6.352 12.6581 6.352C12.5301 6.352 12.4421 6.324 12.3941 6.268C12.3461 6.212 12.3221 6.112 12.3221 5.968C12.3221 5.776 12.3861 5.624 12.5141 5.512C12.6501 5.4 12.7581 5.344 12.8381 5.344Z" fill="black"/>
<path d="M16.3534 1.816C16.4254 1.848 16.5294 1.864 16.6654 1.864C16.8094 1.856 16.9214 1.844 17.0014 1.828C16.7454 2.18 16.4614 2.568 16.1494 2.992C15.8374 3.416 15.5214 3.84 15.2014 4.264C14.8894 4.68 14.5974 5.072 14.3254 5.44C14.0614 5.8 13.8494 6.104 13.6894 6.352C13.5294 6.6 13.4494 6.756 13.4494 6.82C13.4494 6.868 13.4774 6.904 13.5334 6.928C13.5814 6.952 13.6454 6.964 13.7254 6.964C13.9014 6.964 14.0934 6.904 14.3014 6.784C14.5174 6.656 14.7294 6.5 14.9374 6.316C15.1534 6.124 15.3494 5.932 15.5254 5.74C15.7094 5.54 15.8534 5.368 15.9574 5.224L16.0534 5.296C15.9414 5.44 15.7934 5.612 15.6094 5.812C15.4254 6.012 15.2214 6.212 14.9974 6.412C14.7734 6.612 14.5414 6.78 14.3014 6.916C14.0694 7.044 13.8454 7.108 13.6294 7.108C13.4774 7.108 13.3574 7.076 13.2694 7.012C13.1734 6.956 13.1254 6.856 13.1254 6.712C13.1254 6.584 13.2014 6.388 13.3534 6.124C13.5054 5.852 13.7014 5.54 13.9414 5.188C14.1894 4.836 14.4574 4.464 14.7454 4.072C15.0334 3.672 15.3174 3.28 15.5974 2.896C15.8854 2.504 16.1374 2.144 16.3534 1.816ZM15.0334 3.16C14.9534 3.16 14.9134 3.136 14.9134 3.088C14.9134 3.048 14.9534 3.028 15.0334 3.028H17.3134C17.3374 3.028 17.3614 3.032 17.3854 3.04C17.4174 3.048 17.4334 3.064 17.4334 3.088C17.4334 3.12 17.4174 3.14 17.3854 3.148C17.3614 3.156 17.3374 3.16 17.3134 3.16H15.0334Z" fill="black"/>
<path d="M18.0096 3.94C18.4096 3.94 18.6096 4.132 18.6096 4.516C18.6096 4.812 18.5416 5.116 18.4056 5.428C18.2696 5.732 18.0856 6.012 17.8536 6.268C17.6216 6.516 17.3696 6.72 17.0976 6.88C16.8256 7.032 16.5496 7.108 16.2696 7.108C16.0536 7.108 15.8736 7.056 15.7296 6.952C15.5776 6.84 15.5016 6.66 15.5016 6.412C15.5016 6.18 15.5696 5.924 15.7056 5.644C15.8416 5.356 16.0256 5.084 16.2576 4.828C16.4976 4.572 16.7656 4.36 17.0616 4.192C17.3656 4.024 17.6816 3.94 18.0096 3.94ZM18.1416 4.108C18.0056 4.108 17.8456 4.168 17.6616 4.288C17.4776 4.408 17.2896 4.564 17.0976 4.756C16.9056 4.948 16.7256 5.156 16.5576 5.38C16.3976 5.596 16.2656 5.808 16.1616 6.016C16.0656 6.224 16.0176 6.4 16.0176 6.544C16.0176 6.704 16.0616 6.816 16.1496 6.88C16.2376 6.936 16.3376 6.964 16.4496 6.964C16.6336 6.964 16.8416 6.888 17.0736 6.736C17.3056 6.576 17.5296 6.376 17.7456 6.136C17.9616 5.896 18.1376 5.644 18.2736 5.38C18.4176 5.108 18.4896 4.86 18.4896 4.636C18.4896 4.428 18.4536 4.288 18.3816 4.216C18.3096 4.144 18.2296 4.108 18.1416 4.108ZM18.3576 5.344C18.3976 5.344 18.4136 5.36 18.4056 5.392C18.4056 5.416 18.3856 5.428 18.3456 5.428C18.3136 5.428 18.2656 5.472 18.2016 5.56C18.1456 5.64 18.0936 5.724 18.0456 5.812C17.9976 5.9 17.9736 5.948 17.9736 5.956C17.9736 6.14 18.0416 6.232 18.1776 6.232C18.3056 6.232 18.4496 6.172 18.6096 6.052C18.7776 5.932 18.9376 5.796 19.0896 5.644C19.2496 5.484 19.3776 5.344 19.4736 5.224L19.5696 5.308C19.4656 5.428 19.3336 5.572 19.1736 5.74C19.0136 5.9 18.8456 6.044 18.6696 6.172C18.4936 6.292 18.3296 6.352 18.1776 6.352C18.0496 6.352 17.9616 6.324 17.9136 6.268C17.8656 6.212 17.8416 6.112 17.8416 5.968C17.8416 5.776 17.9056 5.624 18.0336 5.512C18.1696 5.4 18.2776 5.344 18.3576 5.344Z" fill="black"/>
<path d="M21.7769 4.852C21.6649 4.852 21.5809 4.828 21.5249 4.78C21.4769 4.724 21.4529 4.66 21.4529 4.588C21.4529 4.516 21.4809 4.448 21.5369 4.384C21.6009 4.312 21.6849 4.276 21.7889 4.276C21.8529 4.276 21.9089 4.284 21.9569 4.3C22.0049 4.316 22.0289 4.324 22.0289 4.324C22.0369 4.244 22.0169 4.176 21.9689 4.12C21.9209 4.056 21.8289 4.024 21.6929 4.024C21.5649 4.024 21.4089 4.08 21.2249 4.192C21.0409 4.304 20.8489 4.452 20.6489 4.636C20.4569 4.82 20.2729 5.02 20.0969 5.236C19.9289 5.452 19.7929 5.672 19.6889 5.896C19.5849 6.112 19.5329 6.308 19.5329 6.484C19.5329 6.684 19.5969 6.816 19.7249 6.88C19.8529 6.944 19.9929 6.976 20.1449 6.976C20.4329 6.976 20.7169 6.908 20.9969 6.772C21.2769 6.628 21.5329 6.456 21.7649 6.256C22.0049 6.048 22.2089 5.848 22.3769 5.656C22.5449 5.464 22.6649 5.316 22.7369 5.212L22.8449 5.284C22.7809 5.38 22.6609 5.528 22.4849 5.728C22.3089 5.928 22.0929 6.136 21.8369 6.352C21.5889 6.56 21.3129 6.74 21.0089 6.892C20.7049 7.036 20.3849 7.108 20.0489 7.108C19.7769 7.108 19.5489 7.048 19.3649 6.928C19.1729 6.8 19.0769 6.604 19.0769 6.34C19.0769 6.116 19.1409 5.868 19.2689 5.596C19.3969 5.316 19.5729 5.052 19.7969 4.804C20.0289 4.548 20.3009 4.34 20.6129 4.18C20.9329 4.012 21.2849 3.928 21.6689 3.928C21.8209 3.928 21.9529 3.96 22.0649 4.024C22.1769 4.088 22.2329 4.2 22.2329 4.36C22.2329 4.504 22.1809 4.624 22.0769 4.72C21.9809 4.808 21.8809 4.852 21.7769 4.852Z" fill="black"/>
<path d="M22.7305 5.428C22.6985 5.46 22.6745 5.464 22.6585 5.44C22.6425 5.408 22.6385 5.376 22.6465 5.344C22.7825 5.208 22.9145 5.048 23.0425 4.864C23.1785 4.68 23.2905 4.508 23.3785 4.348C23.4745 4.188 23.5305 4.08 23.5465 4.024C23.5625 4.024 23.5865 4.012 23.6185 3.988C23.6585 3.964 23.6945 3.956 23.7265 3.964C23.7185 4.02 23.7065 4.072 23.6905 4.12C23.6825 4.168 23.7105 4.212 23.7745 4.252C23.8385 4.292 23.9705 4.332 24.1705 4.372C24.3705 4.412 24.6745 4.456 25.0825 4.504C25.1225 4.512 25.1505 4.528 25.1665 4.552C25.1905 4.568 25.1785 4.596 25.1305 4.636C24.9785 4.756 24.8105 4.908 24.6265 5.092C24.4425 5.276 24.2625 5.472 24.0865 5.68C23.9185 5.88 23.7785 6.076 23.6665 6.268C23.5625 6.46 23.5105 6.62 23.5105 6.748C23.5105 6.892 23.5745 6.964 23.7025 6.964C23.8625 6.964 24.0425 6.9 24.2425 6.772C24.4505 6.644 24.6585 6.488 24.8665 6.304C25.0745 6.112 25.2665 5.92 25.4425 5.728C25.6265 5.528 25.7785 5.364 25.8985 5.236L25.9945 5.308C25.8825 5.42 25.7385 5.576 25.5625 5.776C25.3865 5.976 25.1865 6.18 24.9625 6.388C24.7465 6.588 24.5145 6.76 24.2665 6.904C24.0185 7.04 23.7625 7.108 23.4985 7.108C23.3465 7.108 23.2105 7.072 23.0905 7C22.9705 6.936 22.9105 6.816 22.9105 6.64C22.9105 6.472 22.9825 6.296 23.1265 6.112C23.2705 5.928 23.4505 5.744 23.6665 5.56C23.8825 5.368 24.1065 5.188 24.3385 5.02C24.5785 4.844 24.7905 4.684 24.9745 4.54L25.0585 4.648C24.9785 4.616 24.8385 4.588 24.6385 4.564C24.4385 4.532 24.2305 4.492 24.0145 4.444C23.7985 4.388 23.6105 4.316 23.4505 4.228C23.2985 4.14 23.2225 4.02 23.2225 3.868C23.2225 3.788 23.2545 3.692 23.3185 3.58C23.3905 3.46 23.4865 3.4 23.6065 3.4C23.7185 3.4 23.7945 3.424 23.8345 3.472C23.8745 3.512 23.8945 3.568 23.8945 3.64C23.8945 3.688 23.8545 3.788 23.7745 3.94C23.6945 4.084 23.5945 4.256 23.4745 4.456C23.3545 4.648 23.2265 4.832 23.0905 5.008C22.9625 5.184 22.8425 5.324 22.7305 5.428Z" fill="black"/>
<path d="M26.4468 7.108C26.0708 7.108 25.8228 7.024 25.7028 6.856C25.5828 6.68 25.5228 6.496 25.5228 6.304C25.5228 5.976 25.6068 5.672 25.7748 5.392C25.9428 5.104 26.1588 4.848 26.4228 4.624C26.6868 4.4 26.9588 4.228 27.2388 4.108C27.5268 3.98 27.7828 3.916 28.0068 3.916C28.1668 3.916 28.2948 3.94 28.3908 3.988C28.4868 4.028 28.5348 4.116 28.5348 4.252C28.5348 4.38 28.4588 4.516 28.3068 4.66C28.1548 4.804 27.9628 4.944 27.7308 5.08C27.4988 5.208 27.2548 5.328 26.9988 5.44C26.7508 5.544 26.5228 5.628 26.3148 5.692C26.1068 5.756 25.9548 5.788 25.8588 5.788C25.8588 5.788 25.8588 5.768 25.8588 5.728C25.8588 5.68 25.8588 5.656 25.8588 5.656C25.9308 5.664 26.0548 5.64 26.2308 5.584C26.4148 5.528 26.6188 5.456 26.8428 5.368C27.0668 5.272 27.2828 5.164 27.4908 5.044C27.7068 4.924 27.8828 4.796 28.0188 4.66C28.1628 4.524 28.2348 4.392 28.2348 4.264C28.2348 4.2 28.2148 4.144 28.1748 4.096C28.1428 4.048 28.0828 4.024 27.9948 4.024C27.8668 4.024 27.7108 4.088 27.5268 4.216C27.3508 4.336 27.1708 4.496 26.9868 4.696C26.8028 4.896 26.6308 5.108 26.4708 5.332C26.3108 5.556 26.1788 5.772 26.0748 5.98C25.9788 6.18 25.9308 6.348 25.9308 6.484C25.9308 6.644 25.9788 6.764 26.0748 6.844C26.1708 6.924 26.3108 6.964 26.4948 6.964C26.8148 6.964 27.1148 6.888 27.3948 6.736C27.6828 6.576 27.9428 6.392 28.1748 6.184C28.4068 5.968 28.6028 5.768 28.7628 5.584C28.9228 5.392 29.0308 5.268 29.0868 5.212C29.0868 5.212 29.0988 5.224 29.1228 5.248C29.1548 5.272 29.1708 5.284 29.1708 5.284C29.1148 5.348 29.0068 5.476 28.8468 5.668C28.6868 5.86 28.4868 6.068 28.2468 6.292C28.0068 6.516 27.7348 6.708 27.4308 6.868C27.1268 7.028 26.7988 7.108 26.4468 7.108Z" fill="black"/>
<path d="M31.4706 1.816C31.5426 1.848 31.6466 1.864 31.7826 1.864C31.9266 1.856 32.0386 1.844 32.1186 1.828C31.8626 2.18 31.5786 2.568 31.2666 2.992C30.9546 3.416 30.6386 3.84 30.3186 4.264C30.0066 4.68 29.7146 5.072 29.4426 5.44C29.1786 5.8 28.9666 6.104 28.8066 6.352C28.6466 6.6 28.5666 6.756 28.5666 6.82C28.5666 6.868 28.5946 6.904 28.6506 6.928C28.6986 6.952 28.7626 6.964 28.8426 6.964C29.0186 6.964 29.2106 6.904 29.4186 6.784C29.6346 6.656 29.8466 6.5 30.0546 6.316C30.2706 6.124 30.4666 5.932 30.6426 5.74C30.8266 5.54 30.9706 5.368 31.0746 5.224L31.1706 5.296C31.0586 5.44 30.9106 5.612 30.7266 5.812C30.5426 6.012 30.3386 6.212 30.1146 6.412C29.8906 6.612 29.6586 6.78 29.4186 6.916C29.1866 7.044 28.9626 7.108 28.7466 7.108C28.5946 7.108 28.4746 7.076 28.3866 7.012C28.2906 6.956 28.2426 6.856 28.2426 6.712C28.2426 6.584 28.3186 6.388 28.4706 6.124C28.6226 5.852 28.8186 5.54 29.0586 5.188C29.3066 4.836 29.5746 4.464 29.8626 4.072C30.1506 3.672 30.4346 3.28 30.7146 2.896C31.0026 2.504 31.2546 2.144 31.4706 1.816ZM30.1506 3.16C30.0706 3.16 30.0306 3.136 30.0306 3.088C30.0306 3.048 30.0706 3.028 30.1506 3.028H32.4306C32.4546 3.028 32.4786 3.032 32.5026 3.04C32.5346 3.048 32.5506 3.064 32.5506 3.088C32.5506 3.12 32.5346 3.14 32.5026 3.148C32.4786 3.156 32.4546 3.16 32.4306 3.16H30.1506Z" fill="black"/>
<path d="M33.6668 4.9C33.6348 4.964 33.5868 5.02 33.5228 5.068C33.4668 5.116 33.4228 5.148 33.3908 5.164C33.3668 5.172 33.3748 5.148 33.4148 5.092C33.5588 4.916 33.6508 4.752 33.6908 4.6C33.7388 4.448 33.7388 4.328 33.6908 4.24C33.6508 4.144 33.5708 4.096 33.4508 4.096C33.2908 4.096 33.1028 4.16 32.8868 4.288C32.6708 4.416 32.4468 4.584 32.2148 4.792C31.9908 5 31.7788 5.224 31.5788 5.464C31.3868 5.696 31.2308 5.924 31.1108 6.148C30.9908 6.364 30.9308 6.552 30.9308 6.712C30.9308 6.832 30.9548 6.908 31.0028 6.94C31.0508 6.972 31.0988 6.988 31.1468 6.988C31.3308 6.988 31.5428 6.904 31.7828 6.736C32.0308 6.56 32.2828 6.34 32.5388 6.076C32.7948 5.812 33.0388 5.544 33.2708 5.272C33.5028 4.992 33.7028 4.74 33.8708 4.516C34.0468 4.292 34.1668 4.14 34.2308 4.06C34.3188 4.092 34.4228 4.104 34.5428 4.096C34.6708 4.088 34.7788 4.08 34.8668 4.072C34.8508 4.096 34.7668 4.196 34.6148 4.372C34.4708 4.548 34.2948 4.76 34.0868 5.008C33.8868 5.248 33.6828 5.496 33.4748 5.752C33.2748 6.008 33.1068 6.232 32.9708 6.424C32.8348 6.616 32.7668 6.744 32.7668 6.808C32.7668 6.888 32.7828 6.94 32.8148 6.964C32.8548 6.98 32.9148 6.988 32.9948 6.988C33.0908 6.98 33.2308 6.936 33.4148 6.856C33.5988 6.768 33.8348 6.6 34.1228 6.352C34.4108 6.104 34.7588 5.736 35.1668 5.248C35.1668 5.248 35.1828 5.26 35.2148 5.284C35.2548 5.308 35.2748 5.32 35.2748 5.32C34.7948 5.88 34.3508 6.32 33.9428 6.64C33.5348 6.952 33.1628 7.108 32.8268 7.108C32.6508 7.108 32.5308 7.08 32.4668 7.024C32.4108 6.968 32.3828 6.888 32.3828 6.784C32.3828 6.704 32.4148 6.608 32.4788 6.496C32.5508 6.376 32.6308 6.26 32.7188 6.148C32.8068 6.036 32.8788 5.948 32.9348 5.884C32.9348 5.884 32.9268 5.88 32.9108 5.872C32.8948 5.864 32.8868 5.86 32.8868 5.86C32.7028 6.084 32.5068 6.292 32.2988 6.484C32.0908 6.676 31.8828 6.828 31.6748 6.94C31.4748 7.052 31.2788 7.108 31.0868 7.108C30.8868 7.108 30.7468 7.06 30.6668 6.964C30.5868 6.86 30.5468 6.704 30.5468 6.496C30.5468 6.296 30.6108 6.056 30.7388 5.776C30.8668 5.488 31.0508 5.208 31.2908 4.936C31.5308 4.656 31.8188 4.424 32.1548 4.24C32.4988 4.056 32.8828 3.964 33.3068 3.964C33.5148 3.964 33.6588 4.004 33.7388 4.084C33.8188 4.156 33.8548 4.244 33.8468 4.348C33.8388 4.452 33.8148 4.556 33.7748 4.66C33.7348 4.764 33.6988 4.844 33.6668 4.9Z" fill="black"/>
<path d="M34.7801 7.276C34.5001 7.276 34.2881 7.224 34.1441 7.12C34.0001 7.016 33.9281 6.876 33.9281 6.7C33.9281 6.572 33.9721 6.46 34.0601 6.364C34.1401 6.26 34.2361 6.18 34.3481 6.124C34.4601 6.06 34.5481 6.028 34.6121 6.028C34.7001 6.028 34.7601 6.048 34.7921 6.088C34.8161 6.12 34.8281 6.156 34.8281 6.196C34.8281 6.26 34.7921 6.312 34.7201 6.352C34.6401 6.392 34.5761 6.412 34.5281 6.412C34.4721 6.412 34.4241 6.396 34.3841 6.364C34.3361 6.324 34.3121 6.304 34.3121 6.304C34.2721 6.312 34.2161 6.356 34.1441 6.436C34.0721 6.516 34.0361 6.604 34.0361 6.7C34.0361 6.796 34.0881 6.888 34.1921 6.976C34.2961 7.064 34.4641 7.108 34.6961 7.108C34.9361 7.108 35.1641 7.028 35.3801 6.868C35.6041 6.708 35.7881 6.504 35.9321 6.256C36.0761 6.008 36.1481 5.756 36.1481 5.5C36.1481 5.412 36.1481 5.296 36.1481 5.152C36.1481 5 36.1481 4.876 36.1481 4.78C36.1481 4.66 36.1681 4.524 36.2081 4.372C36.2481 4.212 36.2921 4.064 36.3401 3.928C36.3961 3.792 36.4401 3.708 36.4721 3.676C36.5361 3.62 36.5841 3.604 36.6161 3.628C36.6481 3.652 36.6561 3.676 36.6401 3.7C36.6321 3.708 36.5801 3.772 36.4841 3.892C36.3881 4.004 36.2681 4.144 36.1241 4.312C35.9801 4.48 35.8361 4.648 35.6921 4.816C35.5481 4.984 35.4201 5.132 35.3081 5.26C35.2041 5.388 35.1441 5.464 35.1281 5.488C35.0881 5.544 35.0521 5.556 35.0201 5.524C34.9881 5.492 34.9961 5.452 35.0441 5.404C35.1321 5.292 35.2401 5.16 35.3681 5.008C35.5041 4.848 35.6401 4.692 35.7761 4.54C35.9121 4.388 36.0281 4.26 36.1241 4.156C36.2281 4.044 36.2841 3.98 36.2921 3.964C36.3161 3.932 36.3361 3.876 36.3521 3.796C36.3761 3.716 36.4041 3.64 36.4361 3.568C36.4761 3.496 36.5241 3.46 36.5801 3.46C36.7161 3.46 36.7841 3.508 36.7841 3.604C36.7841 3.676 36.7281 3.764 36.6161 3.868C36.5121 3.972 36.4521 4.056 36.4361 4.12C36.4121 4.216 36.4121 4.352 36.4361 4.528C36.4681 4.696 36.5001 4.888 36.5321 5.104C36.5721 5.32 36.5921 5.548 36.5921 5.788C36.5921 6.108 36.5281 6.368 36.4001 6.568C36.2721 6.76 36.1121 6.908 35.9201 7.012C35.7281 7.116 35.5281 7.184 35.3201 7.216C35.1201 7.256 34.9401 7.276 34.7801 7.276ZM36.6281 6.448C36.4201 6.448 36.2841 6.408 36.2201 6.328C36.1641 6.248 36.1441 6.156 36.1601 6.052C36.1841 5.94 36.2121 5.84 36.2441 5.752L36.3641 5.764C36.3401 5.844 36.3161 5.928 36.2921 6.016C36.2761 6.104 36.2881 6.18 36.3281 6.244C36.3681 6.308 36.4721 6.34 36.6401 6.34C36.7601 6.34 36.8961 6.284 37.0481 6.172C37.2001 6.06 37.3481 5.924 37.4921 5.764C37.6441 5.604 37.7721 5.448 37.8761 5.296L37.9841 5.38C37.8801 5.508 37.7521 5.656 37.6001 5.824C37.4561 5.992 37.3001 6.14 37.1321 6.268C36.9641 6.388 36.7961 6.448 36.6281 6.448Z" fill="black"/>
</svg>
